<?xml version="1.0" encoding="UTF-8"?>
<svg id="_レイヤー_1" data-name="レイヤー 1" xmlns="http://www.w3.org/2000/svg" viewBox="0 0 300 300">
  <defs>
    <style>
      .cls-1 {
        fill: #ed575d;
      }

      .cls-2 {
        fill: #163151;
      }

      .cls-3 {
        fill: #f7f8f9;
      }
    </style>
  </defs>
  <path class="cls-1" d="M156.89,169.68c-7.61,6.16-32.18-20.13-45.65-33.27-21.08-20.57-35.5-46.17-18.88-69.31,5.89-8.21,16.81-13.54,28.84-13.68,13.22-.16,24.07,5.59,31.84,16.69,11.87-17.91,33.62-23.44,51.13-13.37,21.49,12.36,21.92,42.21,1.51,65.98-14.85,17.29-31.07,32.62-48.78,46.96Z"/>
  <path class="cls-3" d="M202.59,263.29c-.87,1.73-.23-1.31-3.99-.4-5.21,1.26-11.73,1.41-17.21,0h-14.92c-.57-1.45-3.68.13-3.66-1.09l.53-39.34c.4-29.71,19.59-28.69,43.88-47.55,9-6.99,16.76-13.02,21.61-6.62,1.57,2.08,1.68,5.71-1.17,8.28l-17.8,16.03c-2.29,2.06-2.83,4-1.68,6.09.99,1.8,4.34,2.68,6.42.69l22.28-21.28c2.09-1.99.58-8.66,1.67-11.46l14.67-37.74c1.69-4.35,6.48-5.88,9.95-4.99,3.92,1.01,6.49,5.23,5.19,10.04l-15.68,58.06c-1.77,6.57-6.16,11.3-11.56,14.97l-35.81,24.32c-3.7,2.52-7.43,6.05-7.85,10.62l-1.51,16.27c-.38,4.05,3.28,5.71,6.63,5.08Z"/>
  <path class="cls-3" d="M141.57,261.74l-12.88-.8c-6.25-.39-13.32-.24-19.08-.17l-1.74-15.81c-.58-5.09-2.31-9.44-6.47-12.22l-39.41-26.31c-4.89-3.26-7.96-7.56-9.49-13.36l-16.06-61.04c-1.2-4.55,3.62-7.97,6.65-8.2,3.88-.3,7.73,1.42,9.34,5.76l14.29,38.52c-.68,4.84.16,9.75,3.64,12.95l19.68,18.12c2.16,1.99,5.18,1.4,6.27-.47,1.28-2.19.4-3.98-1.75-6.13l-19.19-19.17c-2.36-2.36,1.64-6.77,3.84-7.19,2.22-.43,5.76-.59,8.36,1.47,11.95,9.47,23.76,17.72,37.34,24.69,9.76,5.01,15.79,15.2,15.8,26.14v35.97c0,2.84.26,5.2.88,7.26Z"/>
  <path class="cls-2" d="M149.54,216.67l.16,37.85c.01,2.99-.68,5.57-1.44,7.59l-6.69-.36c-.62-2.06-.87-4.42-.87-7.26v-35.97c-.01-10.93-6.04-21.13-15.8-26.14-13.58-6.97-25.38-15.22-37.34-24.69-2.6-2.06-6.14-1.89-8.36-1.47-2.2.42-6.2,4.83-3.84,7.19l19.19,19.17c2.15,2.15,3.02,3.94,1.75,6.13-1.09,1.87-4.11,2.46-6.27.47l-19.68-18.12c-3.48-3.2-4.32-8.11-3.64-12.95l-14.29-38.52c-1.61-4.34-5.46-6.06-9.34-5.76-3.03.24-7.85,3.65-6.65,8.2l16.06,61.04c1.53,5.8,4.6,10.1,9.49,13.36l39.41,26.31c4.15,2.77,5.88,7.13,6.47,12.22l1.74,15.81c-2.52.03-7.22,5.2-9.38-.75-1.69-4.63.46-14.64-2.94-19l-40.84-27.26c-6.15-4.1-10.64-10.01-12.56-17.36l-15.88-60.98c-2.42-9.3,3.83-17.88,11.68-19.91,8.25-2.13,17.12,1.71,20.23,10.01l12.75,34c8.32-4.14,16.65-2.54,23.51,3.3,9.93,8.45,20.19,14.96,31.78,20.85,12.88,6.55,21.52,19.49,21.57,32.99Z"/>
  <path class="cls-2" d="M202.59,263.29c-3.35.63-7-1.04-6.63-5.08l1.51-16.27c.42-4.58,4.15-8.11,7.85-10.62l35.81-24.32c5.4-3.67,9.78-8.4,11.56-14.97l15.68-58.06c1.3-4.81-1.26-9.03-5.19-10.04-3.47-.89-8.26.64-9.95,4.99l-14.67,37.74c-1.09,2.8.42,9.46-1.67,11.46l-22.28,21.28c-2.08,1.99-5.43,1.1-6.42-.69-1.15-2.1-.61-4.03,1.68-6.09l17.8-16.03c2.85-2.57,2.75-6.2,1.17-8.28-4.85-6.4-12.61-.37-21.61,6.62-24.29,18.86-43.48,17.84-43.88,47.55l-.53,39.34-6.28.66c-.15-.74-.51-1.53-1.65-1.96l.04-43.03c.01-15.47,10.16-28.42,24-35.1,10.92-5.27,20.41-11.43,29.6-19.27,6.75-5.76,14.96-7.85,23.57-4.01l14.11-35.35c3.14-7.87,13.1-10.65,19.35-8.65,8.81,2.82,13.64,11.48,11.25,20.61l-14.02,53.55c-2.14,8.18-4.8,16.91-11.89,21.75l-42.54,29.02c-4.53,3.09-1.1,13.96-5.76,23.25Z"/>
</svg>