<?xml version="1.0" encoding="UTF-8"?>
<svg id="_レイヤー_1" data-name="レイヤー 1" xmlns="http://www.w3.org/2000/svg" viewBox="0 0 231.24 280">
  <defs>
    <style>
      .cls-1 {
        stroke: #000;
        stroke-miterlimit: 10;
        stroke-width: 2px;
      }
    </style>
  </defs>
  <path class="cls-1" d="M184.07,221.8c-6.99.05-12.97,9.14-21.34,3.99l22.68-9.9c2.52-5.74-3.7-10.23-6.82-14.55-2.46-3.41-.34-12.05-6.96-13.51-1.67,3.23-4.75,8.02-7.88,10.91l-31.7,29.18-2.24,1.97c-.5.44-2.6-.74-2.59-1.4,0-.99.85-3.28,1.61-3.98l18.75-17.33c-4.01-7.82-4.53-13.99-4.61-23.94-14.56,10.51-32.08,10.9-47.52.36.09,9.11-.05,15.92-4.39,24.39l24.91,24.55c.49.49,1.62,3.23,1.3,3.75l-1.32,2.13c-.48.78-2.11-1.43-3.03-2.48l-36.36-37.64c-1.16-1.21-2.53-5.79-1.27-6.29,1.51-.6,5.49-.63,6.15-.06-1.55,4.86,2.3,11.85,7.63,9.89,1.99-4.01,2.14-11.53,1.76-16.36l-20.85,1.68c-7.93.64-5.54,10.14-8.18,14.26s-11.62,8.11-6.67,15.38l24.96,9.78c1.17.46-.7,4.39-1.82,3.99l-23.08-8.3c-10.81,2.56-20.38,10.71-24.64,21.08l-10.68,42.37c-3.11-14.89,1.92-29.19,5.98-42.61,3.52-11.65,13.48-19.07,24.07-24.18-1.62-8.52,1.31-15.81,9.03-19.48-.88-9.27,4.05-16.57,13.23-17.45l18.77-1.09c-9.11-7.48-14.36-17.68-17.8-28.44-13.34-4.89-20.86-17.8-16.51-32.23l-4.87-18.18-6.96-1.49,9.66-30.11-5.77-3.97,8.43-8.61c7.23-7.39,14.96-14.67,23.41-19.74l-1.99-8.46,40.25-3.62-33.1,9.59c-.15-.2,1.81,2.46,2.63,3.57-11.84,5.9-20.73,13.52-30.14,23.85l4.25,1.22-10.56,28.03,4.48,3.69,2.88,19.25c23.15,1.85,32.68-25.32,34.27-6.87,8.27-4.17,13.77-8.25,22.44-15.3,1.09,1.76,1.18,5.08.75,9.92,19.85-8.51,19.39-33.2,24.92-23.67l11.27,19.43.09-5.59c.02-.99,2.58-1.87,3.52-1.48l10.73,23.63,10.19-1.4,2.18-15.95c.4-2.94,1.22-5.48,3.44-8.34-.74-11.29-6.2-22.97-13.05-32.22,7.3-4.83-10.87-12.93-24.18-18.55,9.21-6.16,27.27,7.3,35.02,18.42-1.32,1.4-2.97,2.76-2.67,3.42l1.86,4.1c4.57,10.09,7.19,20.84,9.85,31.85l-5.6,2.49-3.93,18.17c5.33,14.44-.45,29.67-15.5,34.88-3.75,10.19-9.17,20.36-17.65,28.83l19.06.32c9.29.55,15.95,7.48,15.2,17.28,6.55,4.77,9.93,11.49,8.17,19.95,26.15,10.33,29.56,35.65,32.47,63.06.13,1.21-4.66,2.33-3.89,1.27l-8.98-41.74c-5.4-8.77-13.34-17.38-25.12-19.36ZM77.04,149.06c4.13,19.18,20.29,36.91,41.19,37.54,17.42.53,33.77-13.36,39.65-29.25,5.32-14.37,9.21-39.06.78-48.65l-5.4-.26-13.99-23.7c-5.3,12.52-14.15,22.21-27.45,25.48l-2.35-5.29-20.93,10.35-2.46-5.17-13.1,8.29,4.07,30.65ZM68.64,123.88c-.18-1.56-2-4.49-2.84-5.34-.84-.85-4.03,1.88-4.52,3.06-3.73,9.03.37,21.03,9.97,25.28l-2.62-22.99ZM176.45,121.35c-.53-1.3-3.37-3.72-4.46-3.11-.82.46-3.25,2.82-3.35,3.75l-2.66,24.61c10.35-3.94,14.29-15.82,10.46-25.25ZM158.92,191.38c2.57.45,6.22.92,6.87-.4l2.63-5.3-19.91-.44c-2.08,4.59-1.88,13.7,3.61,17,3.92-.16,8.27-7.29,6.8-10.85Z"/>
  <path class="cls-1" d="M104.1,271.88l.27,5.62c.07,1.45-4.99,2.54-5.33,1.13s-.14-3.81-.1-6.21l.58-36.18c-6.81-1.72-11.54-2.82-16.15-7.75l15.75,3.47c1.98.44,3.87,1,6.25,2.04,1.56.68-.19,4.4-1.71,6.15l.44,31.73Z"/>
  <path class="cls-1" d="M136.64,271.77l.45,5.53c.11,1.41-5.03,2.54-5.3,1.16s-.15-3.3-.11-6.42l.38-30.67-2.88-4.06c-.46-.65,1.22-2.72,2.34-4,.92-1.04,3.87-1.65,5.13-1.27s.28,3.73-.07,5.5l.06,34.23Z"/>
  <path class="cls-1" d="M141.52,30.62c-.71,1.91-8.14,5.33-10.36,3.77l-15.54-9.07c-.71-.5,3.33-3.29,4.18-3.46,1.14-.23,2.89-.17,4.13.41l17.59,8.34Z"/>
  <path class="cls-1" d="M47.39,279.17c.24,1.09-.27,4.1-.46,4.97s-3.49-1.17-3.66-2.05l-3.11-16.36-1.01-3.74c-.21-.79,4.12-1.54,4.29-.75l3.94,17.93Z"/>
  <path class="cls-1" d="M195.85,281.26c-.18,1.41-3.6,3.65-3.8,2.72-1.27-5.91.73-22.18,6.66-24.59l-2.85,21.87Z"/>
</svg>