<?xml version="1.0" encoding="UTF-8"?>
<svg id="_レイヤー_1" data-name="レイヤー 1" xmlns="http://www.w3.org/2000/svg" viewBox="0 0 300 300">
  <defs>
    <style>
      .cls-1 {
        fill: #f7f9fc;
      }

      .cls-2 {
        fill: #fcfcfc;
      }

      .cls-3 {
        fill: #e8e9ea;
      }

      .cls-4 {
        fill: #244774;
      }

      .cls-5 {
        fill: #2e50a9;
      }

      .cls-6 {
        fill: #667ef9;
      }

      .cls-7 {
        fill: #727e92;
      }

      .cls-8 {
        fill: #eef4fc;
      }

      .cls-9 {
        fill: #6a758a;
      }

      .cls-10 {
        fill: #d7eefb;
      }
    </style>
  </defs>
  <rect class="cls-10" x="223.47" y="118.66" width="18.27" height="43.77"/>
  <path class="cls-5" d="M247.81,76.19c-.78,2.06-1.59,2.74-2.95,2.99s-3.98-.86-3.33-2.77l6.25-18.44c.74-2.18,2.13-3.25,4.15-2.84,2.22.45,2.87,2.57,1.97,4.97l-6.08,16.09Z"/>
  <path class="cls-1" d="M203.13,265.82c1.88-6.23-.17-16.34-2.35-24.17-5.89-21.13-20.5-29.99-39.98-38.46-3.62-5.73-9.1-9.66-15.98-10.59-1.06-.55-1.5-1.77-1.43-2.46.08-.82.67-2.41,1.84-3.05,5.76-3.16,5.99-11.62,10.05-15.35,4.74-4.36,9.79-6.73,10.88-14.38.75-5.25.14-11.15-4.93-14.94,3.2-14.94,3.73-31.25-8.25-39.44l-5.24-1.91c-8.4-16.31-36.52-16.09-51.55-5.2-2.79,2.02-4.06,3.86-7.46,5.22-13.49,5.38-14.41,25.65-10.93,41.16l-3.29,4.15c-3.17,7.68-.79,16.85,5.48,22.23l5.04,2.49c1.94,6.82,5.29,12.41,10.39,17.23.97.92.62,2.52.21,3.19-.54.89-1.73,1.64-3,1.88-5.88,1.61-10.72,4.46-13.76,9.7l-17.4,8.51c-11.5,5.63-18.72,16.76-22.4,28.73-3.58-.92-5.57-3.86-7.73-6.47C4.2,201,.46,155.34,21.21,117.72c8.38-15.19,19.6-28.17,34.24-37.82,30.96-20.42,69.31-24.31,103.87-11.15,11.92,4.54,22.33,10.5,31.53,18.98l6.95,6.4c2.58,2.37,4.42,4.69,4.51,8.17-9.5,3.78-16.91,12.76-16.95,23.75l-.07,18.26c-.05,12.17,5.4,22.34,16.61,27.05l.27,16.27c.03,2.03,3.87,2.27,5.44,1.12l14.8-10.81c3.89-2.84,6.59-3.24,10.86-3.25l-.86,11.24c-3.62,20.38-12.67,38.6-26.49,53.91l-4.83,4.22,1.93,11.96"/>
  <path class="cls-5" d="M264.47,86.53c-1.76,1.29-3.14,1.31-4.35.38-.79-.6-1.87-2.8-.65-3.75l16.19-12.67c1.6-1.25,3.21-1.69,4.66-.6.98.73,1.87,3.59.42,4.65l-16.28,11.99Z"/>
  <path class="cls-4" d="M203.13,265.82c-.73.08-1.96,1.22-2.04,2-1.44.03-2.95,0-4.3-.42l.75-6.32c.58-4.89-.63-9.53-1.8-14.3-4.69-19.05-14.13-28.11-33.03-35.95,1.14,5.87,1.02,10.39,1.13,15.86l.34,16.24c6.37,2.83,10.1,9.56,7.43,16.03-1.81,4.37-6.89,6.86-11.05,6.85s-8.74-2.1-10.71-6.2c-2.63-5.47.04-14.29,7.33-16.34,1.65-.97.71-4.1.84-5.54.48-5.21-1.01-11.78-.84-17.24l.21-6.32c-.79-5.84-2.99-11.09-8.72-13.99-1.86,2.41-2.67,4.78-3.63,7.41l-21.95,60.5c-2.84.05-5.88.38-8.25-1.42.1-.76.02-1.52-.37-2.62l-22.76-63.17c-8.03,1.68-11.4,11.87-9.6,19.87.24,1.05-.13,2.57-.31,3.68-.56,3.4-.94,7.59.12,11.78.96.69,2.94-1.21,2.69-2.35l3.44-.16c2.05,5.39,6.27,9.06,11.04,12.93,1.01.82-1.42,3.63-2.53,3.57s-2.25-.96-3.28-2.19l-.5,11.54c-.13,3.01-1.77,5.09-3.81,5.81-2.41.85-4.87.83-6.57-1.21-1.21-1.44-.71-3.11.16-4.17.51-.62,2.63-.85,3.57-1.22,1.76-3.13,1.18-8.13-.05-11.67-1.44-4.16-5.82-5.39-9.65-4.71-6.79,1.22-9.02,9.01-6.3,16.67,1.79.39,5.35.75,4.99,3.74-.3,2.48-3.06,3.7-5.31,3.55-1.97-.14-4.55-1.31-5.35-3.86-3.48-11.08-.5-23.33,10.85-25.67l-.1-16.34.78-9.23-14.02,7.02c-8.16,5.24-13.74,13.29-16.57,22.6-2.06,6.79-4.03,13.45-3.61,20.64.13,2.2,1.18,4.34.07,6.11-1.64-.05-5.67.34-5.94-2.27-.87-8.46.76-17.23,3.15-25,3.68-11.96,10.89-23.1,22.4-28.73l17.4-8.51c3.04-5.23,7.88-8.09,13.76-9.7,1.27-.25,2.47-.99,3-1.88.41-.68.76-2.27-.21-3.19-5.09-4.82-8.45-10.42-10.39-17.23l-5.04-2.49c-6.26-5.38-8.65-14.56-5.48-22.23l3.29-4.15c-3.49-15.52-2.56-35.78,10.93-41.16,3.39-1.36,4.66-3.19,7.46-5.22,15.03-10.89,43.15-11.11,51.55,5.2l5.24,1.91c11.98,8.19,11.45,24.5,8.25,39.44,5.07,3.79,5.68,9.7,4.93,14.94-1.09,7.65-6.15,10.02-10.88,14.38-4.05,3.73-4.29,12.19-10.05,15.35-1.17.64-1.77,2.23-1.84,3.05-.06.69.37,1.91,1.43,2.46,6.88.93,12.36,4.86,15.98,10.59,19.49,8.47,34.09,17.33,39.98,38.46,2.18,7.83,4.23,17.94,2.35,24.17ZM141.01,117.52c10.89,7.65,7.85,15.01,14.55,23.99l1.59-15.74c.67-6.6-1.73-12.92-6.69-17.2-1.89-1.63-4.23-1.82-6.57-2.95-1.4-.68-1.86-3.68-3.15-4.78-11.63-9.92-31.67-8.06-42.15.54-2.39,1.96-3.86,3.36-6.92,4.58-10.14,4-11.05,22.28-7.5,35.63l5.04-11.61c2.68-6.17,9.2-11.99,16.19-10.14,7.98,2.11,16.68,1,23.72-3.32,4.4-2.7,7.55-2.04,11.9,1.01ZM120.34,193.38c10-.75,18.62-6.6,23.98-14.28,2.89-4.13,3.75-8.75,5.26-13.44l6.89-2.19c4.43-3.66,5.23-12.83,1.88-15.25-1.51-1.09-7.57,2.96-8.11,0-.66-3.62-2.3-5.91-3.43-9.13l-3.81-10.82c-1.06-3.01-5.53-8.33-9.3-7.17-9.21,4.23-18.67,7.03-28.86,4.03-8.06-2.37-9.68,7.92-12.53,14.3-1.43,3.2-2.61,5.72-3.34,9.17-.5,2.39-6.26-.96-7.62-.49-3.53,1.24-3.35,11.13,1.98,15.37l6.8,2.47c1.58,8.92,5.91,16.4,13.43,21.51,4.7,3.2,10.26,6.44,16.79,5.95ZM138.33,200.44l-1.12-6.87c-10.57,7.55-24.25,8.02-35.09-.34l-1.04,7.84,18.31,21.65,18.93-22.27ZM102.88,212.25l-.51.51.51.51.51-.51-.51-.51ZM102.84,213.61l16.71,46.73,15.95-42.93.63-4.48-13.37,14.6c-1.23,1.34-2.49,2.32-4.18,1.87-1.06-.28-2.32-1.21-2.67-2.87-4.71-3.95-7.3-9.55-13.06-12.92ZM166.78,254.32c0-3.35-2.72-6.07-6.07-6.07s-6.07,2.72-6.07,6.07,2.72,6.07,6.07,6.07,6.07-2.72,6.07-6.07Z"/>
  <path class="cls-1" d="M114.83,266.67c-.58.62-1.75,1.53-3.16,1.51l-25.79-.37c-4.06,3.01-8.79,2.65-13.58.79l-30.44-.97c1.11-1.77.05-3.92-.07-6.11-.42-7.2,1.55-13.86,3.61-20.64,2.83-9.31,8.41-17.36,16.57-22.6l14.02-7.02-.78,9.23.1,16.34c-11.35,2.34-14.33,14.59-10.85,25.67.8,2.55,3.38,3.72,5.35,3.86,2.25.16,5.01-1.06,5.31-3.55.36-3-3.21-3.36-4.99-3.74-2.73-7.66-.49-15.45,6.3-16.67,3.83-.69,8.21.55,9.65,4.71,1.23,3.54,1.8,8.54.05,11.67-.94.37-3.06.6-3.57,1.22-.87,1.06-1.37,2.73-.16,4.17,1.71,2.04,4.16,2.06,6.57,1.21,2.04-.72,3.68-2.8,3.81-5.81l.5-11.54c1.03,1.22,2.13,2.12,3.28,2.19s3.54-2.75,2.53-3.57c-4.78-3.87-8.99-7.55-11.04-12.93.78-2.47,2.34-4.55,4.2-7.27-2.24-3.52-6.25-5.47-10.13-5.68-1.8-8,1.57-18.19,9.6-19.87l22.76,63.17c.39,1.09.47,1.86.37,2.62Z"/>
  <path class="cls-1" d="M157.17,220.48c-3.22.21-6.45,1.4-8.87,4.08l5.21,9.28-11.76,12.64c-1.48,1.59-2.48,3.07-.9,4.99.9,1.09,3.03,1.43,4.56-.36l9.44-11.08c1.06-1.24,1.79-2.13,3.17-2.3-.13,1.44.81,4.57-.84,5.54-7.29,2.05-9.96,10.87-7.33,16.34,1.97,4.1,6.62,6.19,10.71,6.2s9.24-2.49,11.05-6.85c2.67-6.46-1.06-13.19-7.43-16.03l-.34-16.24c-.11-5.47.01-9.99-1.13-15.86,18.9,7.85,28.34,16.9,33.03,35.95,1.17,4.77,2.38,9.41,1.8,14.3l-.75,6.32c1.34.41,2.86.45,4.3.42-.06.53.14,2.31-.98,2.1l-5.25-.96-16.49-1.35-.21-10.86-3.73-.05c-.84,3.8-.95,7.25-.69,10.75-4.44-.16-8.82.19-13.62.18l-6.34-.02-30.7.49,21.95-60.5c.96-2.63,1.77-5,3.63-7.41,5.73,2.9,7.93,8.15,8.72,13.99l-.21,6.32Z"/>
  <path class="cls-9" d="M178.37,267.6l-4.63-.16c-.26-3.5-.15-6.95.69-10.75l3.73.05.21,10.86Z"/>
  <path class="cls-2" d="M120.34,193.38c-6.53.49-12.09-2.75-16.79-5.95-7.52-5.12-11.85-12.6-13.43-21.51l-6.8-2.47c-5.32-4.24-5.51-14.13-1.98-15.37,1.35-.48,7.11,2.87,7.62.49.73-3.45,1.91-5.97,3.34-9.17,2.84-6.37,4.47-16.67,12.53-14.3,10.19,3,19.65.21,28.86-4.03,3.77-1.16,8.24,4.17,9.3,7.17l3.81,10.82c1.14,3.22,2.77,5.51,3.43,9.13.55,2.97,6.61-1.08,8.11,0,3.36,2.43,2.55,11.59-1.88,15.25l-6.89,2.19c-1.5,4.69-2.37,9.31-5.26,13.44-5.36,7.67-13.98,13.52-23.98,14.28Z"/>
  <path class="cls-7" d="M141.01,117.52c-4.35-3.05-7.5-3.72-11.9-1.01-7.04,4.33-15.74,5.44-23.72,3.32-6.99-1.85-13.51,3.97-16.19,10.14l-5.04,11.61c-3.55-13.35-2.64-31.62,7.5-35.63,3.07-1.21,4.53-2.61,6.92-4.58,10.48-8.6,30.52-10.46,42.15-.54,1.29,1.1,1.75,4.1,3.15,4.78,2.34,1.14,4.68,1.32,6.57,2.95,4.96,4.28,7.36,10.59,6.69,17.2l-1.59,15.74c-6.7-8.97-3.66-16.34-14.55-23.99Z"/>
  <path class="cls-1" d="M138.33,200.44l-18.93,22.27-18.31-21.65,1.04-7.84c10.85,8.36,24.52,7.9,35.09.34l1.12,6.87Z"/>
  <path class="cls-6" d="M102.84,213.61c5.76,3.37,8.34,8.97,13.06,12.92.35,1.66,1.62,2.58,2.67,2.87,1.69.45,2.95-.53,4.18-1.87l13.37-14.6-.63,4.48-15.95,42.93-16.71-46.73Z"/>
  <path class="cls-7" d="M157.17,220.48c-.18,5.46,1.32,12.02.84,17.24-1.38.17-2.11,1.06-3.17,2.3l-9.44,11.08c-1.53,1.79-3.66,1.44-4.56.36-1.58-1.91-.58-3.4.9-4.99l11.76-12.64-5.21-9.28c2.42-2.68,5.66-3.87,8.87-4.08Z"/>
  <circle class="cls-3" cx="160.71" cy="254.32" r="6.07"/>
  <path class="cls-10" d="M88.03,233.69l-3.44.16c.45-1.98,2.42-4.46,1.89-6.83-.41-1.86-3.37-2.45-4.7-2.6.18-1.12.55-2.63.31-3.68,3.88.21,7.89,2.16,10.13,5.68-1.86,2.72-3.41,4.8-4.2,7.27Z"/>
  <path class="cls-8" d="M84.6,233.85c.26,1.14-1.73,3.05-2.69,2.35-1.06-4.19-.68-8.38-.12-11.78,1.33.14,4.29.74,4.7,2.6.52,2.36-1.44,4.85-1.89,6.83Z"/>
  <rect class="cls-6" x="102.52" y="212.4" width=".73" height=".73" transform="translate(-120.32 135.07) rotate(-45)"/>
  <path class="cls-5" d="M258.97,174.11c-.86.17-1.55.21-2.22.56l-23.47.03c-4.28,0-6.97.4-10.86,3.25l-14.8,10.81c-1.57,1.15-5.41.91-5.44-1.12l-.27-16.27c-11.21-4.71-16.65-14.88-16.61-27.05l.07-18.26c.04-10.99,7.45-19.97,16.95-23.75,3.65-1.45,7.87-2.07,12.27-2.06l39.28.03c12.88,0,25.39,9.27,26.93,22.52l.05,28.64c.02,12.01-11.15,20.59-21.88,22.68ZM256.18,168.7c11.07-.35,19.21-9.64,19.19-20.27l-.04-22.68c-.02-11.07-10.4-19.75-21.56-19.7l-42.05.2c-12.62.06-20.74,10.46-20.66,22.59l.11,15.31c-1.03,11.06,5.07,20.37,16.1,22.82l.3,14.55,17.76-11.84,30.83-.97Z"/>
  <path class="cls-10" d="M256.18,168.7l-30.83.97-17.76,11.84-.3-14.55c-11.04-2.44-17.14-11.75-16.1-22.82l-.11-15.31c-.09-12.13,8.03-22.53,20.66-22.59l42.05-.2c11.16-.05,21.54,8.63,21.56,19.7l.04,22.68c.02,10.64-8.12,19.93-19.19,20.27ZM233.62,156.71c1.53-.09,2.5-1.26,2.54-3.16l.25-11c.86-1.35,2.89-2.5,2.86-4.07-.03-1.75-.09-3.51-1.61-4.92-4.37-4.05.83-10.42-3.08-11.88-1.28-.48-3.11-.02-3.89,1.04-1.92,2.64,2.84,7.66-.54,10.22-2.05,1.54-2.94,3.28-2.78,5.44.13,1.79,2.18,2.97,3.45,4.32,1.7,6.29-1.84,14.29,2.81,14.01ZM218.18,137.56c0-2.63-2.13-4.77-4.77-4.77s-4.77,2.13-4.77,4.77,2.13,4.77,4.77,4.77,4.77-2.13,4.77-4.77ZM257.96,137.55c0-2.61-2.12-4.73-4.73-4.73s-4.73,2.12-4.73,4.73,2.12,4.73,4.73,4.73,4.73-2.12,4.73-4.73Z"/>
  <circle class="cls-5" cx="213.41" cy="137.56" r="4.77"/>
  <circle class="cls-5" cx="233.34" cy="137.56" r="4.77"/>
  <circle class="cls-5" cx="253.22" cy="137.55" r="4.73"/>
</svg>